name C:/MyDriveSym/Projects/mobilecap/Data\Session20210825_0002\mocap\ForceDataProcessed\walking2_forces.mot
datacolumns 19
datarows 12
range 0.32700000 0.33250000
endheader 
time	R_ground_force_vx	R_ground_force_vy	R_ground_force_vz	R_ground_force_px	R_ground_force_py	R_ground_force_pz	R_ground_torque_x	R_ground_torque_y	R_ground_torque_z	L_ground_force_vx	L_ground_force_vy	L_ground_force_vz	L_ground_force_px	L_ground_force_py	L_ground_force_pz	L_ground_torque_x	L_ground_torque_y	L_ground_torque_z	
          0.32700000	        -19.35260800	        459.24923500	        -20.92777100	          0.24842300	          0.00600000	         -0.14951100	          0.00000000	         -1.18345500	          0.00000000	          0.00000000	          0.00000000	          0.00000000	          0.71969200	          0.00000000	         -0.19341500	          0.00000000	          0.00000000	          0.00000000	
          0.32750000	        -19.13862100	        458.87737200	        -20.89230900	          0.24860500	          0.00600000	         -0.14944300	          0.00000000	         -1.20210200	          0.00000000	          0.00000000	          0.00000000	          0.00000000	          0.71969200	          0.00000000	         -0.19341500	          0.00000000	          0.00000000	          0.00000000	
          0.32800000	        -18.92550300	        458.51323100	        -20.85767800	          0.24878700	          0.00600000	         -0.14937400	          0.00000000	         -1.22076900	          0.00000000	          0.00000000	          0.00000000	          0.00000000	          0.71969200	          0.00000000	         -0.19341500	          0.00000000	          0.00000000	          0.00000000	
          0.32850000	        -18.71324300	        458.15681500	        -20.82388300	          0.24896900	          0.00600000	         -0.14930600	          0.00000000	         -1.23945600	          0.00000000	          0.00000000	          0.00000000	          0.00000000	          0.71969200	          0.00000000	         -0.19341500	          0.00000000	          0.00000000	          0.00000000	
          0.32900000	        -18.50182900	        457.80813000	        -20.79092700	          0.24915200	          0.00600000	         -0.14923700	          0.00000000	         -1.25816300	          0.00000000	          0.00000000	          0.00000000	          0.00000000	          0.71969200	          0.00000000	         -0.19341500	          0.00000000	          0.00000000	          0.00000000	
          0.32950000	        -18.29124800	        457.46718200	        -20.75881700	          0.24933500	          0.00600000	         -0.14916900	          0.00000000	         -1.27688800	          0.00000000	          0.00000000	          0.00000000	          0.00000000	          0.71969200	          0.00000000	         -0.19341500	          0.00000000	          0.00000000	          0.00000000	
          0.33000000	        -18.08148700	        457.13397400	        -20.72755600	          0.24951900	          0.00600000	         -0.14910100	          0.00000000	         -1.29563200	          0.00000000	          0.00000000	          0.00000000	          0.00000000	          0.71969200	          0.00000000	         -0.19341500	          0.00000000	          0.00000000	          0.00000000	
          0.33050000	        -17.87253300	        456.80851200	        -20.69715000	          0.24970300	          0.00600000	         -0.14903300	          0.00000000	         -1.31439400	          0.00000000	          0.00000000	          0.00000000	          0.00000000	          0.71969200	          0.00000000	         -0.19341500	          0.00000000	          0.00000000	          0.00000000	
          0.33100000	        -17.66437500	        456.49079700	        -20.66760200	          0.24988700	          0.00600000	         -0.14896500	          0.00000000	         -1.33317200	          0.00000000	          0.00000000	          0.00000000	          0.00000000	          0.71969200	          0.00000000	         -0.19341500	          0.00000000	          0.00000000	          0.00000000	
          0.33150000	        -17.45699900	        456.18083500	        -20.63891800	          0.25007100	          0.00600000	         -0.14889700	          0.00000000	         -1.35196700	          0.00000000	          0.00000000	          0.00000000	          0.00000000	          0.71969200	          0.00000000	         -0.19341500	          0.00000000	          0.00000000	          0.00000000	
          0.33200000	        -17.25039300	        455.87862800	        -20.61110100	          0.25025600	          0.00600000	         -0.14883000	          0.00000000	         -1.37077700	          0.00000000	          0.00000000	          0.00000000	          0.00000000	          0.71969200	          0.00000000	         -0.19341500	          0.00000000	          0.00000000	          0.00000000	
          0.33250000	        -17.04454500	        455.58417900	        -20.58415600	          0.25044000	          0.00600000	         -0.14876200	          0.00000000	         -1.38960200	          0.00000000	          0.00000000	          0.00000000	          0.00000000	          0.71969200	          0.00000000	         -0.19341500	          0.00000000	          0.00000000	          0.00000000	
